<svg xmlns="http://www.w3.org/2000/svg" viewBox="0 0 50 50"><defs><style>.cls-3{fill:#fff}</style></defs><g id="Camada_2" data-name="Camada 2"><g style="opacity:.5" id="Camada_1-2" data-name="Camada 1"><circle cx="25" cy="25" r="25" style="fill:#29abe2"/><path class="cls-3" d="M40.42 30a1.56 1.56 0 0 1-1.2-.56L25 12.58 10.77 29.45a1.56 1.56 0 0 1-2.39-2l15.43-18.3a1.61 1.61 0 0 1 2.39 0l15.42 18.29a1.56 1.56 0 0 1-1.2 2.56Z"/><path class="cls-3" d="M40.42 41.41a1.56 1.56 0 0 1-1.2-.56L25 24 10.77 40.85a1.56 1.56 0 0 1-2.39-2l15.43-18.3a1.61 1.61 0 0 1 2.39 0l15.42 18.29a1.56 1.56 0 0 1-1.19 2.57Z"/></g></g></svg>